<?xml version="1.0" encoding="UTF-8" standalone="no"?>
<!-- Created with Inkscape (http://www.inkscape.org/) -->

<svg
   version="1.1"
   id="svg1"
   width="181.41966"
   height="181.41966"
   viewBox="0 0 181.41966 181.41966"
   xmlns="http://www.w3.org/2000/svg"
   xmlns:svg="http://www.w3.org/2000/svg">
  <defs
     id="defs1" />
  <g
     id="g1"
     transform="translate(7.3328871e-4,0.00159584)">
    <path
       id="path2"
       d="M -11.33855,-11.33855 V 11.33896 H 11.33896 V -11.33855 Z"
       style="fill:#ad71ac;fill-opacity:1;fill-rule:nonzero;stroke:none"
       transform="matrix(1.3333333,0,0,-1.3333333,15.117333,166.3)" />
    <path
       id="path3"
       d="M 17.00824,17.00824 V 39.68576 H 39.68576 V 17.00824 Z"
       style="fill:#5c8ef0;fill-opacity:1;fill-rule:nonzero;stroke:none"
       transform="matrix(1.3333333,0,0,-1.3333333,15.117333,166.3)" />
    <path
       id="path4"
       d="M 45.35506,45.35506 V 68.03258 H 68.03258 V 45.35506 Z"
       style="fill:#e7a5e8;fill-opacity:1;fill-rule:nonzero;stroke:none"
       transform="matrix(1.3333333,0,0,-1.3333333,15.117333,166.3)" />
    <path
       id="path5"
       d="M 73.70186,73.70186 V 96.37938 H 96.37938 V 73.70186 Z"
       style="fill:#5c8ef0;fill-opacity:1;fill-rule:nonzero;stroke:none"
       transform="matrix(1.3333333,0,0,-1.3333333,15.117333,166.3)" />
    <path
       id="path6"
       d="M 102.04868,102.04868 V 124.7262 H 124.7262 V 102.04868 Z"
       style="fill:#5c8ef0;fill-opacity:1;fill-rule:nonzero;stroke:none"
       transform="matrix(1.3333333,0,0,-1.3333333,15.117333,166.3)" />
    <path
       id="path7"
       d="M -9.92111,18.42567 V 38.26834 H 9.92155 V 18.42567 Z"
       style="fill:#7da6ff;fill-opacity:1;fill-rule:nonzero;stroke:none"
       transform="matrix(1.3333333,0,0,-1.3333333,15.117333,166.3)" />
    <path
       id="path8"
       d="M -7.08669,49.6069 V 63.7803 H 7.0867 V 49.6069 Z"
       style="fill:#adc8ff;fill-opacity:1;fill-rule:nonzero;stroke:none"
       transform="matrix(1.3333333,0,0,-1.3333333,15.117333,166.3)" />
    <path
       id="path9"
       d="M 18.42567,46.77248 V 66.61516 H 38.26834 V 46.77248 Z"
       style="fill:#7da6ff;fill-opacity:1;fill-rule:nonzero;stroke:none"
       transform="matrix(1.3333333,0,0,-1.3333333,15.117333,166.3)" />
    <path
       id="path10"
       d="M 49.6069,77.95372 V 92.1271 H 63.7803 V 77.95372 Z"
       style="fill:#adc8ff;fill-opacity:1;fill-rule:nonzero;stroke:none"
       transform="matrix(1.3333333,0,0,-1.3333333,15.117333,166.3)" />
    <path
       id="path11"
       d="m 75.1193,103.4661 v 19.84268 H 94.96196 V 103.4661 Z"
       style="fill:#f7d0f8;fill-opacity:1;fill-rule:nonzero;stroke:none"
       transform="matrix(1.3333333,0,0,-1.3333333,15.117333,166.3)" />
    <path
       id="path12"
       d="M 21.2601,-7.08669 V 7.0867 H 35.43349 V -7.08669 Z"
       style="fill:#adc8ff;fill-opacity:1;fill-rule:nonzero;stroke:none"
       transform="matrix(1.3333333,0,0,-1.3333333,15.117333,166.3)" />
    <path
       id="path13"
       d="M 46.77248,18.42567 V 38.26834 H 66.61516 V 18.42567 Z"
       style="fill:#7da6ff;fill-opacity:1;fill-rule:nonzero;stroke:none"
       transform="matrix(1.3333333,0,0,-1.3333333,15.117333,166.3)" />
    <path
       id="path14"
       d="M 77.95372,21.2601 V 35.43349 H 92.1271 V 21.2601 Z"
       style="fill:#adc8ff;fill-opacity:1;fill-rule:nonzero;stroke:none"
       transform="matrix(1.3333333,0,0,-1.3333333,15.117333,166.3)" />
    <path
       id="path15"
       d="M 75.1193,46.77248 V 66.61516 H 94.96196 V 46.77248 Z"
       style="fill:#7da6ff;fill-opacity:1;fill-rule:nonzero;stroke:none"
       transform="matrix(1.3333333,0,0,-1.3333333,15.117333,166.3)" />
    <path
       id="path16"
       d="m 103.4661,75.1193 v 19.84266 h 19.84268 V 75.1193 Z"
       style="fill:#f7d0f8;fill-opacity:1;fill-rule:nonzero;stroke:none"
       transform="matrix(1.3333333,0,0,-1.3333333,15.117333,166.3)" />
  </g>
</svg>
